# xmcd CD database file
#
# Track frame offsets:
#	150
#	16439
#	28864
#	41377
#	55942
#	69132
#	81268
#	95210
#	112305
#	127116
#	143340
#	154560
#
# Disc length: 2251 seconds
#
# Revision: 0
# Processed by: cddbd v1.5.1PL0 Copyright (c) Steve Scherf et al.
# Submitted via: CDex 1.50
#
DISCID=9f08c90c
DTITLE=Doc Holiday - This Is About As Country As I'm Gonna Git
DYEAR=2005
DGENRE=Country
TTITLE0=Open Road
TTITLE1=I Never
TTITLE2=Mobile Home
TTITLE3=Breakin' In A Broken Heart
TTITLE4=What Turns You On
TTITLE5=Where Were You
TTITLE6=Go West Son
TTITLE7=Life Is For The Living
TTITLE8=It All Comes Back To Me
TTITLE9=I Can't Take My Heart Anywhere
TTITLE10=Weak At Heart
TTITLE11=Amnesia
EXTD=YEAR: 2005
EXTT0=
EXTT1=
EXTT2=
EXTT3=
EXTT4=
EXTT5=
EXTT6=
EXTT7=
EXTT8=
EXTT9=
EXTT10=
EXTT11=
PLAYORDER=
